<?xml version="1.0" encoding="UTF-8"?><svg id="Logo" xmlns="http://www.w3.org/2000/svg" viewBox="0 0 112 36"><defs><style>.cls-1{fill:#00a6ff;stroke:#00a6ff;}.cls-1,.cls-2{stroke-miterlimit:10;}.cls-3{fill:#fff;}.cls-4{fill:#004aba;}.cls-2{fill:none;stroke:#000;}</style></defs><rect class="cls-3" width="112" height="36" rx="3.5" ry="3.5"/><path class="cls-1" d="M3.5,.5h63V35.5H3.5c-1.66,0-3-1.34-3-3V3.5C.5,1.84,1.84,.5,3.5,.5Z"/><g><path class="cls-3" d="M16.31,8.05v14.04c0,1.03,.02,2.21,.1,3h-1.9l-.1-2.02h-.05c-.65,1.3-2.06,2.28-3.96,2.28-2.81,0-4.97-2.38-4.97-5.91-.02-3.86,2.38-6.24,5.21-6.24,1.78,0,2.98,.84,3.5,1.78h.05v-6.94h2.11Zm-2.11,10.15c0-.26-.02-.62-.1-.89-.31-1.34-1.46-2.45-3.05-2.45-2.18,0-3.48,1.92-3.48,4.49,0,2.35,1.15,4.3,3.43,4.3,1.42,0,2.71-.94,3.1-2.52,.07-.29,.1-.58,.1-.91v-2.02Z"/><path class="cls-3" d="M24.71,17.81v1.56h-5.93v-1.56h5.93Z"/><path class="cls-3" d="M28.79,19.66c.05,2.86,1.87,4.03,3.98,4.03,1.51,0,2.42-.26,3.22-.6l.36,1.51c-.74,.34-2.02,.72-3.86,.72-3.58,0-5.71-2.35-5.71-5.86s2.06-6.26,5.45-6.26c3.79,0,4.8,3.34,4.8,5.47,0,.43-.05,.77-.07,.98h-8.16Zm6.19-1.51c.02-1.34-.55-3.43-2.93-3.43-2.14,0-3.07,1.97-3.24,3.43h6.17Z"/><path class="cls-3" d="M39.63,8.05h2.11V25.09h-2.11V8.05Z"/><path class="cls-3" d="M45.3,8.05h2.11V25.09h-2.11V8.05Z"/><path class="cls-3" d="M53.31,10.21c.02,.72-.5,1.3-1.34,1.3-.74,0-1.27-.58-1.27-1.3s.55-1.32,1.32-1.32,1.3,.58,1.3,1.32Zm-2.35,14.88V13.47h2.11v11.62h-2.11Z"/><path class="cls-3" d="M56.29,22.93c.62,.41,1.73,.84,2.78,.84,1.54,0,2.26-.77,2.26-1.73,0-1.01-.6-1.56-2.16-2.14-2.09-.74-3.07-1.9-3.07-3.29,0-1.87,1.51-3.41,4.01-3.41,1.18,0,2.21,.34,2.86,.72l-.53,1.54c-.46-.29-1.3-.67-2.38-.67-1.25,0-1.94,.72-1.94,1.58,0,.96,.7,1.39,2.21,1.97,2.02,.77,3.05,1.78,3.05,3.5,0,2.04-1.58,3.48-4.34,3.48-1.27,0-2.45-.31-3.26-.79l.53-1.61Z"/><path class="cls-4" d="M70.66,23.84c0-.89,.6-1.51,1.44-1.51s1.42,.62,1.42,1.51-.55,1.51-1.44,1.51c-.84,0-1.42-.65-1.42-1.51Z"/><path class="cls-4" d="M76.14,16.61c0-1.2-.02-2.18-.1-3.14h1.87l.12,1.92h.05c.58-1.1,1.92-2.18,3.84-2.18,1.61,0,4.1,.96,4.1,4.94v6.94h-2.11v-6.7c0-1.87-.7-3.43-2.69-3.43-1.39,0-2.47,.98-2.83,2.16-.1,.26-.14,.62-.14,.98v6.98h-2.11v-8.47Z"/><path class="cls-4" d="M90.63,19.66c.05,2.86,1.87,4.03,3.98,4.03,1.51,0,2.42-.26,3.22-.6l.36,1.51c-.74,.34-2.02,.72-3.86,.72-3.58,0-5.71-2.35-5.71-5.86s2.06-6.26,5.45-6.26c3.79,0,4.8,3.34,4.8,5.47,0,.43-.05,.77-.07,.98h-8.16Zm6.19-1.51c.02-1.34-.55-3.43-2.93-3.43-2.14,0-3.07,1.97-3.24,3.43h6.17Z"/><path class="cls-4" d="M104.02,10.13v3.34h3.02v1.61h-3.02v6.26c0,1.44,.41,2.26,1.58,2.26,.55,0,.96-.07,1.22-.14l.1,1.58c-.41,.17-1.06,.29-1.87,.29-.98,0-1.78-.31-2.28-.89-.6-.62-.82-1.66-.82-3.03v-6.34h-1.8v-1.61h1.8v-2.78l2.06-.55Z"/></g><rect class="cls-2" x=".5" y=".5" width="111" height="35" rx="3" ry="3"/></svg>